<?xml version="1.0" encoding="UTF-8"?>
<svg xmlns="http://www.w3.org/2000/svg" xmlns:xlink="http://www.w3.org/1999/xlink" width="3872.97" height="3872.97" viewBox="0 0 3872.97 3872.97">
<defs>
<clipPath id="clip-2">
<path clip-rule="nonzero" d="M 698 742 L 3175 742 L 3175 3131 L 698 3131 Z M 698 742 "/>
</clipPath>
<clipPath id="clip-3">
<path clip-rule="evenodd" d="M 1827.308594 1211.160156 C 1801.558594 1211.160156 1780.621094 1232.101562 1780.621094 1257.851562 C 1780.621094 1283.609375 1801.550781 1304.550781 1827.308594 1304.550781 C 1853.070312 1304.550781 1874.019531 1283.609375 1874.019531 1257.851562 C 1874.019531 1232.089844 1853.058594 1211.160156 1827.308594 1211.160156 Z M 1894.308594 2019.039062 C 1821 1977.160156 1777.359375 1892.539062 1762.539062 1811.421875 C 1557.519531 1712.488281 1447.371094 1603.660156 1425.878906 1478.890625 C 1393.671875 1291.761719 1574.71875 1111.160156 1720.230469 966.019531 C 1799.820312 886.621094 1874.980469 811.628906 1894.929688 755.261719 C 1897.679688 747.480469 1905.128906 741.878906 1913.378906 742.550781 C 1920.441406 742.71875 1926.730469 746.789062 1929.871094 752.921875 C 1935.058594 758.578125 1957.171875 774.679688 1978.601562 790.308594 C 2106.070312 883.191406 2404.570312 1100.730469 2391.171875 1361.859375 C 2383.429688 1513.039062 2271.621094 1653.589844 2058.851562 1779.691406 C 2058.078125 1822.238281 2047.941406 1969.261719 1946.710938 2033.480469 C 1943.601562 2035.429688 1940.058594 2036.449219 1936.480469 2036.449219 C 1934.351562 2036.449219 1932.230469 2036.101562 1930.179688 2035.390625 C 1923.851562 2033.160156 1917.5 2030.621094 1911.421875 2027.828125 C 1957.109375 1844.820312 1981.140625 1675.640625 1940.109375 1484.769531 C 1928.449219 1430.539062 1905.128906 1353.058594 1874.550781 1303.128906 C 1885.828125 1291.359375 1892.78125 1275.410156 1892.78125 1257.871094 C 1892.78125 1221.78125 1863.390625 1192.421875 1827.308594 1192.421875 C 1791.230469 1192.421875 1761.859375 1221.789062 1761.859375 1257.871094 C 1761.859375 1293.941406 1791.230469 1323.320312 1827.308594 1323.320312 C 1839.050781 1323.320312 1850.089844 1320.210938 1859.640625 1314.761719 C 1887.851562 1362.058594 1910.570312 1439.730469 1921.230469 1489.53125 L 1921.230469 1489.539062 C 1961.238281 1676.46875 1938.609375 1840.371094 1894.308594 2019.039062 Z M 2698.359375 2061.828125 C 2702.460938 2061.828125 2706.539062 2062.378906 2710.480469 2063.421875 C 2735.261719 2070.039062 2750.128906 2095.871094 2743.488281 2120.628906 C 2736.910156 2145.148438 2710.851562 2160.199219 2686.308594 2153.621094 C 2674.269531 2150.390625 2664.179688 2142.671875 2657.960938 2131.878906 C 2651.730469 2121.121094 2650.058594 2108.441406 2653.289062 2096.441406 C 2658.769531 2076.050781 2677.261719 2061.828125 2698.359375 2061.828125 Z M 2560.800781 2642.949219 C 2779.78125 2642.929688 3005.699219 2460.53125 3110.839844 2375.710938 C 3131.460938 2359.050781 3152.761719 2341.851562 3159.570312 2338.28125 C 3166.308594 2336.859375 3171.851562 2331.839844 3173.859375 2325.050781 C 3176.179688 2317.128906 3173.171875 2308.601562 3166.351562 2303.949219 C 3117.078125 2270.078125 3064.089844 2178.050781 3007.988281 2080.640625 C 2905.460938 1902.558594 2777.871094 1680.921875 2588.800781 1663.601562 C 2462.289062 1651.960938 2329.058594 1730.308594 2180.46875 1902.730469 C 2159.21875 1901 2109.339844 1899.390625 2055.761719 1914.308594 C 2043.941406 1949.128906 2026.941406 1981.871094 2003.75 2009.011719 C 2142.019531 2081.679688 2295.199219 2132.148438 2451.628906 2139.640625 C 2503.539062 2142.121094 2581.488281 2139.96875 2635.03125 2125.019531 C 2632.191406 2114.171875 2632.191406 2102.679688 2635.171875 2091.570312 C 2642.828125 2063.050781 2668.789062 2043.050781 2698.339844 2043.050781 C 2704.070312 2043.050781 2709.789062 2043.800781 2715.300781 2045.28125 C 2749.988281 2054.601562 2770.890625 2090.730469 2761.609375 2125.449219 C 2753.96875 2154.019531 2727.988281 2173.988281 2698.421875 2173.988281 C 2692.710938 2173.988281 2686.980469 2173.238281 2681.441406 2171.75 C 2664.988281 2167.308594 2651.199219 2156.988281 2642.398438 2142.449219 C 2598.191406 2155.238281 2534.269531 2159.121094 2491.171875 2159.121094 C 2316.929688 2159.121094 2144.070312 2104.140625 1990.578125 2023.160156 C 1980.449219 2033.128906 1969.300781 2042.089844 1957.070312 2049.828125 C 1950.898438 2053.730469 1943.769531 2055.820312 1936.480469 2055.820312 C 1934.46875 2055.820312 1933.148438 2055.859375 1932.21875 2055.878906 C 1981.398438 2146.851562 2097.660156 2186.558594 2134.421875 2197.121094 C 2201.140625 2435.300781 2307.949219 2579.640625 2451.96875 2626.261719 C 2487.640625 2637.828125 2524.101562 2642.949219 2560.800781 2642.949219 Z M 1174.589844 2061.828125 C 1195.679688 2061.828125 1214.199219 2076.070312 1219.648438 2096.441406 C 1226.289062 2121.199219 1211.421875 2147.019531 1186.628906 2153.640625 C 1182.679688 2154.691406 1178.601562 2155.21875 1174.511719 2155.21875 C 1153.441406 2155.21875 1134.910156 2140.941406 1129.460938 2120.589844 C 1122.828125 2095.851562 1137.710938 2070.058594 1162.460938 2063.421875 C 1166.410156 2062.359375 1170.5 2061.828125 1174.589844 2061.828125 Z M 1312.140625 2642.949219 C 1348.820312 2642.949219 1385.308594 2637.828125 1421.03125 2626.261719 C 1565.050781 2579.671875 1671.851562 2435.300781 1738.589844 2197.121094 C 1771.769531 2187.589844 1869.769531 2154.269531 1924.699219 2080.949219 C 1921.289062 2075.789062 1918.121094 2070.511719 1915.191406 2065.101562 L 1904.921875 2046.109375 C 1893.558594 2040.96875 1882.78125 2035 1872.589844 2028.28125 C 1722.078125 2106.390625 1552.910156 2159.96875 1382.75 2159.96875 C 1337.78125 2159.96875 1275.808594 2155.808594 1230.410156 2142.449219 C 1221.949219 2156.398438 1208.359375 2167.238281 1191.5 2171.769531 C 1185.960938 2173.238281 1180.261719 2173.988281 1174.511719 2173.988281 C 1144.949219 2173.988281 1118.988281 2154.019531 1111.328125 2125.449219 C 1102.03125 2090.738281 1122.941406 2054.640625 1157.609375 2045.300781 C 1163.148438 2043.820312 1168.859375 2043.050781 1174.589844 2043.050781 C 1204.160156 2043.050781 1230.140625 2063.050781 1237.800781 2091.589844 C 1240.828125 2102.921875 1240.648438 2114.378906 1237.839844 2125.039062 C 1290.421875 2139.738281 1368 2141.898438 1418.839844 2139.601562 C 1570.96875 2132.679688 1720.21875 2085.089844 1855.589844 2015.96875 C 1819.058594 1987.03125 1791.078125 1948.101562 1771.519531 1905.058594 C 1736.730469 1900.371094 1707.46875 1901.519531 1692.5 1902.699219 C 1543.890625 1730.261719 1410.148438 1652.039062 1284.171875 1663.570312 C 1095.070312 1680.890625 967.457031 1902.53125 864.933594 2080.621094 C 808.839844 2178.03125 755.839844 2270.078125 706.59375 2303.910156 C 699.808594 2308.601562 696.773438 2317.128906 699.109375 2325.019531 C 701.089844 2331.820312 706.652344 2336.820312 713.378906 2338.261719 C 720.195312 2341.828125 741.480469 2359.011719 762.105469 2375.671875 C 867.238281 2460.53125 1093.128906 2642.96875 1312.140625 2642.949219 Z M 1924.460938 2402.949219 C 1872.230469 2394.269531 1832.269531 2348.800781 1832.269531 2294.160156 L 1832.269531 2180.28125 C 1872.539062 2159.019531 1909.71875 2131.230469 1936.539062 2097.300781 C 1966.398438 2134.96875 2008.300781 2164.691406 2052.859375 2186.480469 L 2052.859375 2294.160156 C 2052.859375 2348.148438 2013.859375 2393.199219 1962.539062 2402.621094 C 1966.070312 2506.160156 1957.601562 3002.988281 1484.328125 3129.808594 C 1482.679688 3130.28125 1481.011719 3130.480469 1479.390625 3130.480469 C 1470.960938 3130.480469 1463.261719 3124.878906 1460.980469 3116.328125 C 1458.261719 3106.171875 1464.300781 3095.730469 1474.460938 3093.011719 C 1923.429688 2972.691406 1927.988281 2496.171875 1924.460938 2402.949219 "/>
</clipPath>
<linearGradient id="linear-pattern-1" gradientUnits="userSpaceOnUse" x1="-0.00122952" y1="0" x2="1.001227" y2="0" gradientTransform="matrix(2473.33, 0, 0, 2473.33, 699.815, 1936.49)">
<stop offset="0" stop-color="rgb(0%, 16.470337%, 22.3526%)" stop-opacity="1"/>
<stop offset="0.0078125" stop-color="rgb(0%, 16.589355%, 22.471619%)" stop-opacity="1"/>
<stop offset="0.015625" stop-color="rgb(0%, 16.848755%, 22.735596%)" stop-opacity="1"/>
<stop offset="0.0234375" stop-color="rgb(0%, 17.131042%, 23.020935%)" stop-opacity="1"/>
<stop offset="0.03125" stop-color="rgb(0%, 17.41333%, 23.306274%)" stop-opacity="1"/>
<stop offset="0.0390625" stop-color="rgb(0%, 17.695618%, 23.591614%)" stop-opacity="1"/>
<stop offset="0.046875" stop-color="rgb(0%, 17.979431%, 23.876953%)" stop-opacity="1"/>
<stop offset="0.0546875" stop-color="rgb(0%, 18.261719%, 24.163818%)" stop-opacity="1"/>
<stop offset="0.0625" stop-color="rgb(0%, 18.544006%, 24.449158%)" stop-opacity="1"/>
<stop offset="0.0703125" stop-color="rgb(0%, 18.826294%, 24.734497%)" stop-opacity="1"/>
<stop offset="0.078125" stop-color="rgb(0%, 19.108582%, 25.019836%)" stop-opacity="1"/>
<stop offset="0.0859375" stop-color="rgb(0%, 19.392395%, 25.305176%)" stop-opacity="1"/>
<stop offset="0.09375" stop-color="rgb(0%, 19.674683%, 25.592041%)" stop-opacity="1"/>
<stop offset="0.101562" stop-color="rgb(0%, 19.95697%, 25.87738%)" stop-opacity="1"/>
<stop offset="0.109375" stop-color="rgb(0%, 20.239258%, 26.16272%)" stop-opacity="1"/>
<stop offset="0.117188" stop-color="rgb(0%, 20.521545%, 26.448059%)" stop-opacity="1"/>
<stop offset="0.125" stop-color="rgb(0%, 20.803833%, 26.733398%)" stop-opacity="1"/>
<stop offset="0.132812" stop-color="rgb(0%, 21.087646%, 27.020264%)" stop-opacity="1"/>
<stop offset="0.140625" stop-color="rgb(0%, 21.369934%, 27.305603%)" stop-opacity="1"/>
<stop offset="0.148438" stop-color="rgb(0%, 21.652222%, 27.590942%)" stop-opacity="1"/>
<stop offset="0.15625" stop-color="rgb(0%, 21.934509%, 27.876282%)" stop-opacity="1"/>
<stop offset="0.164062" stop-color="rgb(0%, 22.216797%, 28.161621%)" stop-opacity="1"/>
<stop offset="0.171875" stop-color="rgb(0%, 22.499084%, 28.44696%)" stop-opacity="1"/>
<stop offset="0.179688" stop-color="rgb(0%, 22.782898%, 28.733826%)" stop-opacity="1"/>
<stop offset="0.1875" stop-color="rgb(0%, 23.065186%, 29.019165%)" stop-opacity="1"/>
<stop offset="0.195312" stop-color="rgb(0%, 23.347473%, 29.304504%)" stop-opacity="1"/>
<stop offset="0.203125" stop-color="rgb(0%, 23.629761%, 29.589844%)" stop-opacity="1"/>
<stop offset="0.210938" stop-color="rgb(0%, 23.912048%, 29.875183%)" stop-opacity="1"/>
<stop offset="0.21875" stop-color="rgb(0%, 24.195862%, 30.162048%)" stop-opacity="1"/>
<stop offset="0.226562" stop-color="rgb(0%, 24.478149%, 30.447388%)" stop-opacity="1"/>
<stop offset="0.234375" stop-color="rgb(0%, 24.760437%, 30.732727%)" stop-opacity="1"/>
<stop offset="0.242188" stop-color="rgb(0%, 25.042725%, 31.018066%)" stop-opacity="1"/>
<stop offset="0.25" stop-color="rgb(0%, 25.325012%, 31.303406%)" stop-opacity="1"/>
<stop offset="0.257812" stop-color="rgb(0%, 25.6073%, 31.590271%)" stop-opacity="1"/>
<stop offset="0.265625" stop-color="rgb(0%, 25.891113%, 31.87561%)" stop-opacity="1"/>
<stop offset="0.273438" stop-color="rgb(0%, 26.173401%, 32.16095%)" stop-opacity="1"/>
<stop offset="0.28125" stop-color="rgb(0%, 26.455688%, 32.446289%)" stop-opacity="1"/>
<stop offset="0.289062" stop-color="rgb(0%, 26.737976%, 32.731628%)" stop-opacity="1"/>
<stop offset="0.296875" stop-color="rgb(0%, 27.020264%, 33.016968%)" stop-opacity="1"/>
<stop offset="0.304688" stop-color="rgb(0%, 27.302551%, 33.303833%)" stop-opacity="1"/>
<stop offset="0.3125" stop-color="rgb(0%, 27.586365%, 33.589172%)" stop-opacity="1"/>
<stop offset="0.320312" stop-color="rgb(0%, 27.868652%, 33.874512%)" stop-opacity="1"/>
<stop offset="0.328125" stop-color="rgb(0%, 28.15094%, 34.159851%)" stop-opacity="1"/>
<stop offset="0.335938" stop-color="rgb(0%, 28.433228%, 34.44519%)" stop-opacity="1"/>
<stop offset="0.34375" stop-color="rgb(0%, 28.715515%, 34.732056%)" stop-opacity="1"/>
<stop offset="0.351562" stop-color="rgb(0%, 28.997803%, 35.017395%)" stop-opacity="1"/>
<stop offset="0.359375" stop-color="rgb(0%, 29.281616%, 35.302734%)" stop-opacity="1"/>
<stop offset="0.367188" stop-color="rgb(0%, 29.563904%, 35.588074%)" stop-opacity="1"/>
<stop offset="0.375" stop-color="rgb(0%, 29.846191%, 35.873413%)" stop-opacity="1"/>
<stop offset="0.382812" stop-color="rgb(0%, 30.128479%, 36.160278%)" stop-opacity="1"/>
<stop offset="0.390625" stop-color="rgb(0%, 30.410767%, 36.445618%)" stop-opacity="1"/>
<stop offset="0.398438" stop-color="rgb(0%, 30.69458%, 36.730957%)" stop-opacity="1"/>
<stop offset="0.40625" stop-color="rgb(0%, 30.976868%, 37.016296%)" stop-opacity="1"/>
<stop offset="0.414062" stop-color="rgb(0%, 31.259155%, 37.301636%)" stop-opacity="1"/>
<stop offset="0.421875" stop-color="rgb(0%, 31.541443%, 37.586975%)" stop-opacity="1"/>
<stop offset="0.429688" stop-color="rgb(0%, 31.82373%, 37.87384%)" stop-opacity="1"/>
<stop offset="0.4375" stop-color="rgb(0%, 32.106018%, 38.15918%)" stop-opacity="1"/>
<stop offset="0.445312" stop-color="rgb(0%, 32.389832%, 38.444519%)" stop-opacity="1"/>
<stop offset="0.453125" stop-color="rgb(0%, 32.672119%, 38.729858%)" stop-opacity="1"/>
<stop offset="0.460938" stop-color="rgb(0%, 32.954407%, 39.015198%)" stop-opacity="1"/>
<stop offset="0.46875" stop-color="rgb(0%, 33.236694%, 39.302063%)" stop-opacity="1"/>
<stop offset="0.476562" stop-color="rgb(0%, 33.518982%, 39.587402%)" stop-opacity="1"/>
<stop offset="0.484375" stop-color="rgb(0%, 33.80127%, 39.872742%)" stop-opacity="1"/>
<stop offset="0.492188" stop-color="rgb(0%, 34.085083%, 40.158081%)" stop-opacity="1"/>
<stop offset="0.5" stop-color="rgb(0%, 34.367371%, 40.44342%)" stop-opacity="1"/>
<stop offset="0.507812" stop-color="rgb(0%, 34.649658%, 40.730286%)" stop-opacity="1"/>
<stop offset="0.515625" stop-color="rgb(0%, 34.931946%, 41.015625%)" stop-opacity="1"/>
<stop offset="0.523438" stop-color="rgb(0%, 35.214233%, 41.300964%)" stop-opacity="1"/>
<stop offset="0.53125" stop-color="rgb(0%, 35.498047%, 41.586304%)" stop-opacity="1"/>
<stop offset="0.539062" stop-color="rgb(0%, 35.780334%, 41.871643%)" stop-opacity="1"/>
<stop offset="0.546875" stop-color="rgb(0%, 36.062622%, 42.156982%)" stop-opacity="1"/>
<stop offset="0.554688" stop-color="rgb(0%, 36.34491%, 42.443848%)" stop-opacity="1"/>
<stop offset="0.5625" stop-color="rgb(0%, 36.627197%, 42.729187%)" stop-opacity="1"/>
<stop offset="0.570312" stop-color="rgb(0%, 36.909485%, 43.014526%)" stop-opacity="1"/>
<stop offset="0.578125" stop-color="rgb(0%, 37.193298%, 43.299866%)" stop-opacity="1"/>
<stop offset="0.585938" stop-color="rgb(0%, 37.475586%, 43.585205%)" stop-opacity="1"/>
<stop offset="0.59375" stop-color="rgb(0%, 37.757874%, 43.87207%)" stop-opacity="1"/>
<stop offset="0.601562" stop-color="rgb(0%, 38.040161%, 44.15741%)" stop-opacity="1"/>
<stop offset="0.609375" stop-color="rgb(0%, 38.322449%, 44.442749%)" stop-opacity="1"/>
<stop offset="0.617188" stop-color="rgb(0%, 38.604736%, 44.728088%)" stop-opacity="1"/>
<stop offset="0.625" stop-color="rgb(0%, 38.88855%, 45.013428%)" stop-opacity="1"/>
<stop offset="0.632812" stop-color="rgb(0%, 39.170837%, 45.300293%)" stop-opacity="1"/>
<stop offset="0.640625" stop-color="rgb(0%, 39.453125%, 45.585632%)" stop-opacity="1"/>
<stop offset="0.648438" stop-color="rgb(0%, 39.735413%, 45.870972%)" stop-opacity="1"/>
<stop offset="0.65625" stop-color="rgb(0%, 40.0177%, 46.156311%)" stop-opacity="1"/>
<stop offset="0.664062" stop-color="rgb(0%, 40.299988%, 46.44165%)" stop-opacity="1"/>
<stop offset="0.671875" stop-color="rgb(0%, 40.583801%, 46.72699%)" stop-opacity="1"/>
<stop offset="0.679688" stop-color="rgb(0%, 40.866089%, 47.013855%)" stop-opacity="1"/>
<stop offset="0.6875" stop-color="rgb(0%, 41.148376%, 47.299194%)" stop-opacity="1"/>
<stop offset="0.695312" stop-color="rgb(0%, 41.430664%, 47.584534%)" stop-opacity="1"/>
<stop offset="0.703125" stop-color="rgb(0%, 41.712952%, 47.869873%)" stop-opacity="1"/>
<stop offset="0.710938" stop-color="rgb(0%, 41.996765%, 48.155212%)" stop-opacity="1"/>
<stop offset="0.71875" stop-color="rgb(0%, 42.279053%, 48.442078%)" stop-opacity="1"/>
<stop offset="0.726562" stop-color="rgb(0%, 42.56134%, 48.727417%)" stop-opacity="1"/>
<stop offset="0.734375" stop-color="rgb(0%, 42.843628%, 49.012756%)" stop-opacity="1"/>
<stop offset="0.742188" stop-color="rgb(0%, 43.125916%, 49.298096%)" stop-opacity="1"/>
<stop offset="0.75" stop-color="rgb(0%, 43.408203%, 49.583435%)" stop-opacity="1"/>
<stop offset="0.757812" stop-color="rgb(0%, 43.692017%, 49.8703%)" stop-opacity="1"/>
<stop offset="0.765625" stop-color="rgb(0%, 43.974304%, 50.15564%)" stop-opacity="1"/>
<stop offset="0.773438" stop-color="rgb(0%, 44.256592%, 50.440979%)" stop-opacity="1"/>
<stop offset="0.78125" stop-color="rgb(0%, 44.538879%, 50.726318%)" stop-opacity="1"/>
<stop offset="0.789062" stop-color="rgb(0%, 44.821167%, 51.011658%)" stop-opacity="1"/>
<stop offset="0.796875" stop-color="rgb(0%, 45.103455%, 51.298523%)" stop-opacity="1"/>
<stop offset="0.804688" stop-color="rgb(0%, 45.387268%, 51.583862%)" stop-opacity="1"/>
<stop offset="0.8125" stop-color="rgb(0%, 45.669556%, 51.869202%)" stop-opacity="1"/>
<stop offset="0.820312" stop-color="rgb(0%, 45.951843%, 52.154541%)" stop-opacity="1"/>
<stop offset="0.828125" stop-color="rgb(0%, 46.234131%, 52.43988%)" stop-opacity="1"/>
<stop offset="0.835938" stop-color="rgb(0%, 46.516418%, 52.72522%)" stop-opacity="1"/>
<stop offset="0.84375" stop-color="rgb(0%, 46.800232%, 53.012085%)" stop-opacity="1"/>
<stop offset="0.851562" stop-color="rgb(0%, 47.08252%, 53.297424%)" stop-opacity="1"/>
<stop offset="0.859375" stop-color="rgb(0%, 47.364807%, 53.582764%)" stop-opacity="1"/>
<stop offset="0.867188" stop-color="rgb(0%, 47.647095%, 53.868103%)" stop-opacity="1"/>
<stop offset="0.875" stop-color="rgb(0%, 47.929382%, 54.153442%)" stop-opacity="1"/>
<stop offset="0.882812" stop-color="rgb(0%, 48.21167%, 54.440308%)" stop-opacity="1"/>
<stop offset="0.890625" stop-color="rgb(0%, 48.495483%, 54.725647%)" stop-opacity="1"/>
<stop offset="0.898438" stop-color="rgb(0%, 48.777771%, 55.010986%)" stop-opacity="1"/>
<stop offset="0.90625" stop-color="rgb(0%, 49.060059%, 55.296326%)" stop-opacity="1"/>
<stop offset="0.914062" stop-color="rgb(0%, 49.342346%, 55.581665%)" stop-opacity="1"/>
<stop offset="0.921875" stop-color="rgb(0%, 49.624634%, 55.86853%)" stop-opacity="1"/>
<stop offset="0.929688" stop-color="rgb(0%, 49.906921%, 56.15387%)" stop-opacity="1"/>
<stop offset="0.9375" stop-color="rgb(0%, 50.190735%, 56.439209%)" stop-opacity="1"/>
<stop offset="0.945312" stop-color="rgb(0%, 50.473022%, 56.724548%)" stop-opacity="1"/>
<stop offset="0.953125" stop-color="rgb(0%, 50.75531%, 57.009888%)" stop-opacity="1"/>
<stop offset="0.960938" stop-color="rgb(0%, 51.037598%, 57.295227%)" stop-opacity="1"/>
<stop offset="0.96875" stop-color="rgb(0%, 51.319885%, 57.582092%)" stop-opacity="1"/>
<stop offset="0.976562" stop-color="rgb(0%, 51.603699%, 57.867432%)" stop-opacity="1"/>
<stop offset="0.984375" stop-color="rgb(0%, 51.885986%, 58.152771%)" stop-opacity="1"/>
<stop offset="0.992188" stop-color="rgb(0%, 52.168274%, 58.43811%)" stop-opacity="1"/>
<stop offset="1" stop-color="rgb(0%, 52.429199%, 58.702087%)" stop-opacity="1"/>
</linearGradient>
</defs>
<g clip-path="url(#clip-0)">
<g clip-path="url(#clip-1)">
<path fill-rule="nonzero" fill="url(#linear-pattern-0)" d="M 0 0 L 0 3872.96875 L 3872.96875 3872.96875 L 3872.96875 0 Z M 0 0 "/>
</g>
</g>
<path fill-rule="evenodd" fill="rgb(100%, 100%, 100%)" fill-opacity="0" d="M 1033.089844 311.910156 L 2839.878906 311.910156 C 3236.539062 311.910156 3561.058594 636.441406 3561.058594 1033.089844 L 3561.058594 2839.878906 C 3561.058594 3236.539062 3236.539062 3561.058594 2839.878906 3561.058594 L 1033.089844 3561.058594 C 636.4375 3561.058594 311.914062 3236.539062 311.914062 2839.878906 L 311.914062 1033.089844 C 311.914062 636.441406 636.4375 311.910156 1033.089844 311.910156 "/>
<g clip-path="url(#clip-2)">
<g clip-path="url(#clip-3)">
<path fill-rule="nonzero" fill="url(#linear-pattern-1)" d="M 696.773438 741.878906 L 696.773438 3130.480469 L 3176.179688 3130.480469 L 3176.179688 741.878906 Z M 696.773438 741.878906 "/>
</g>
</g>
</svg>
